{"title":"CAT.8.2013.BRRip.XviD.Ac3.Feel-Free","uid":8808850,"size":2170592874,"categoryP":"video","categoryS":"movies","magnet":"?xt=urn:btih:0565241355379f2d6800f084bd05172c766e82bc&amp;dn=CAT.8.2013.BRRip.XviD.Ac3.Feel-Free&amp;tr=udp%3A%2F%2Ftracker.openbittorrent.com%3A80&amp;tr=udp%3A%2F%2Fopen.demonii.com%3A1337&amp;tr=udp%3A%2F%2Ftracker.coppersurfer.tk%3A6969&amp;tr=udp%3A%2F%2Fexodus.desync.com%3A6969","seeders":7,"leechers":1,"uploader":"SaM","files":8,"time":1376409672,"description":"Genre:Sci-Fi\nLanguage:English\nIMDb:http://www.imdb.com/title/tt2336630/\nSource:1080p.BluRay.x264 Thanks\nSample:Never\nEncoder:Tony\n\nFormat : AVI\nFormat/Info : Audio Video Interleave\nFormat profile : OpenDML\nFile size : 2.02 GiB\nDuration : 2h 49mn\nOverall bit rate : 1 711 Kbps\n\nVideo\nID : 0\nFormat : MPEG-4 Visual\nFormat profile : Advanced Simple@L5\nFormat settings, BVOP : 1\nFormat settings, QPel : No\nFormat settings, GMC : No warppoints\nFormat settings, Matrix : Default (H.263)\nCodec ID : XVID\nCodec ID/Hint : XviD\nDuration : 2h 49mn\nBit rate : 1 314 Kbps\nWidth : 640 pixels\nHeight : 360 pixels\nDisplay aspect ratio : 16:9\nFrame rate : 25.000 fps\nColor space : YUV\nChroma subsampling : 4:2:0\nBit depth : 8 bits\nScan type : Progressive\nCompression mode : Lossy\nBits/(Pixel*Frame) : 0.228\nStream size : 1.55 GiB (77%)\nWriting library : XviD 1.2.1 (UTC 2008-12-04)\n\nAudio\nID : 1\nFormat : AC-3\nFormat/Info : Audio Coding 3\nMode extension : CM (complete main)\nCodec ID : 2000\nDuration : 2h 49mn\nBit rate mode : Constant\nBit rate : 384 Kbps\nChannel(s) : 6 channels\nChannel positions : Front: L C R, Side: L R, LFE\nSampling rate : 48.0 KHz\nBit depth : 16 bits\nCompression mode : Lossy\nStream size : 464 MiB (22%)\nAlignment : Aligned on interleaves\nInterleave, duration : 40 ms (1.00 video frame)\nInterleave, preload duration : 512 ms\n &lt;a href=&quot;\nhttp://img839.imageshack.us/img839/228/jimz.png&quot; rel=&quot;nofollow&quot; target=&quot;_NEW&quot;&gt;\nhttp://img839.imageshack.us/img839/228/jimz.png&lt;/a&gt;\n &lt;a href=&quot;\nhttp://img853.imageshack.us/img853/9523/lg7m.png&quot; rel=&quot;nofollow&quot; target=&quot;_NEW&quot;&gt;\nhttp://img853.imageshack.us/img853/9523/lg7m.png&lt;/a&gt;\n &lt;a href=&quot;\nhttp://img96.imageshack.us/img96/6313/qidl.png&quot; rel=&quot;nofollow&quot; target=&quot;_NEW&quot;&gt;\nhttp://img96.imageshack.us/img96/6313/qidl.png&lt;/a&gt;\n &lt;a href=&quot;\nhttp://img543.imageshack.us/img543/7044/26ig.png&quot; rel=&quot;nofollow&quot; target=&quot;_NEW&quot;&gt;\nhttp://img543.imageshack.us/img543/7044/26ig.png&lt;/a&gt;\n\nGreets:\nCRYS,INSPiRAL,IMAGINE,LKRG,ADTRG,FXG,3Li,FLAWL3SS,CrEwSaDe,TA,iLLUSiON,EMBER,HOPE,GooN,BBnRG,NOGRP,ETRG,BHRG,iLLUMiNATi,MiSTERE.ViSiON,DTRG SAFCuk009,LU,TheFalcon007,MYSTiC,PrisM,Noir,WBZ,LAP,Rx,Kingdom,SAFCuk009+Fabreezy,HDLiTE,TWiZTED,ETRG.ELEKTRI4KA,MAGNAT,CM8\nAnd to all the other p2p grps past and present\n\n\n\nMake sure its a real Feel-Free release @ http://extratorrent.com\nThanks to all who promotes release Feel-Free !!!","torrent":{"xt":"urn:btih:0565241355379f2d6800f084bd05172c766e82bc","amp;dn":"CAT.8.2013.BRRip.XviD.Ac3.Feel-Free","amp;tr":["udp%3A%2F%2Ftracker.openbittorrent.com%3A80","udp%3A%2F%2Fopen.demonii.com%3A1337","udp%3A%2F%2Ftracker.coppersurfer.tk%3A6969","udp%3A%2F%2Fexodus.desync.com%3A6969"],"infoHash":"0565241355379f2d6800f084bd05172c766e82bc","infoHashBuffer":{"type":"Buffer","data":[5,101,36,19,85,55,159,45,104,0,240,132,189,5,23,44,118,110,130,188]},"announce":[],"urlList":[]}}